<mxfile host="app.diagrams.net" modified="2024-02-16T06:53:37.059Z" agent="Mozilla/5.0 (Windows NT 10.0; Win64; x64) AppleWebKit/537.36 (KHTML, like Gecko) Chrome/121.0.0.0 Safari/537.36" etag="4XpM5BAXPTiPKiClfS2n" version="23.1.4" type="device">
  <diagram name="Page-1" id="X2PSOueI0bUSWcfxkoaD">
    <mxGraphModel dx="2013" dy="745" grid="1" gridSize="10" guides="1" tooltips="1" connect="1" arrows="1" fold="1" page="1" pageScale="1" pageWidth="850" pageHeight="1100" math="0" shadow="0">
      <root>
        <mxCell id="0" />
        <mxCell id="1" parent="0" />
        <mxCell id="MzYWCUBXbWEjFZnSnETH-3" value="Virtual Entity: Patient" style="swimlane;whiteSpace=wrap;html=1;startSize=40;fillColor=#d5e8d4;strokeColor=#82b366;" vertex="1" parent="1">
          <mxGeometry x="-150" y="80" width="150" height="90" as="geometry">
            <mxRectangle x="160" y="60" width="160" height="40" as="alternateBounds" />
          </mxGeometry>
        </mxCell>
        <mxCell id="MzYWCUBXbWEjFZnSnETH-5" value="Entity type :Person&lt;br&gt;ID: Patient 1" style="text;html=1;align=center;verticalAlign=middle;resizable=0;points=[];autosize=1;strokeColor=none;fillColor=none;" vertex="1" parent="MzYWCUBXbWEjFZnSnETH-3">
          <mxGeometry x="15" y="45" width="120" height="40" as="geometry" />
        </mxCell>
        <mxCell id="MzYWCUBXbWEjFZnSnETH-6" value="Virtual Entity :Pill Box" style="swimlane;whiteSpace=wrap;html=1;startSize=40;fillColor=#d5e8d4;strokeColor=#82b366;" vertex="1" parent="1">
          <mxGeometry x="467.99" y="70" width="150" height="100" as="geometry" />
        </mxCell>
        <mxCell id="MzYWCUBXbWEjFZnSnETH-7" value="Entity type :Box&lt;br&gt;ID: Box1" style="text;html=1;align=center;verticalAlign=middle;resizable=0;points=[];autosize=1;" vertex="1" parent="MzYWCUBXbWEjFZnSnETH-6">
          <mxGeometry x="20" y="45" width="110" height="40" as="geometry" />
        </mxCell>
        <mxCell id="MzYWCUBXbWEjFZnSnETH-14" value="" style="html=1;whiteSpace=wrap;aspect=fixed;shape=isoRectangle;fillColor=#f5f5f5;fontColor=#333333;strokeColor=#666666;" vertex="1" parent="1">
          <mxGeometry x="-91.67000000000002" y="170" width="33.33" height="20" as="geometry" />
        </mxCell>
        <mxCell id="MzYWCUBXbWEjFZnSnETH-16" value="Attribute :Pill-Types" style="swimlane;whiteSpace=wrap;html=1;startSize=40;fillColor=#f8cecc;strokeColor=#b85450;" vertex="1" parent="1">
          <mxGeometry x="-400" y="280" width="175.99" height="100" as="geometry" />
        </mxCell>
        <mxCell id="MzYWCUBXbWEjFZnSnETH-17" value="Attribute Name :pill Type No.&lt;br&gt;Attribute Type: Number" style="text;html=1;align=center;verticalAlign=middle;resizable=0;points=[];autosize=1;strokeColor=none;fillColor=none;" vertex="1" parent="MzYWCUBXbWEjFZnSnETH-16">
          <mxGeometry x="-4.01" y="43" width="180" height="40" as="geometry" />
        </mxCell>
        <mxCell id="MzYWCUBXbWEjFZnSnETH-18" value="Attribute :Pill-TIming" style="swimlane;whiteSpace=wrap;html=1;startSize=40;fillColor=#f8cecc;strokeColor=#b85450;" vertex="1" parent="1">
          <mxGeometry x="-163" y="280" width="175.99" height="100" as="geometry" />
        </mxCell>
        <mxCell id="MzYWCUBXbWEjFZnSnETH-19" value="Attribute Name :Pill Timing&lt;br&gt;Attribute Type: TIme" style="text;html=1;align=center;verticalAlign=middle;resizable=0;points=[];autosize=1;strokeColor=none;fillColor=none;" vertex="1" parent="MzYWCUBXbWEjFZnSnETH-18">
          <mxGeometry x="5.99" y="43" width="160" height="40" as="geometry" />
        </mxCell>
        <mxCell id="MzYWCUBXbWEjFZnSnETH-20" value="Attribute :Pill-Status" style="swimlane;whiteSpace=wrap;html=1;startSize=40;fillColor=#f8cecc;strokeColor=#b85450;" vertex="1" parent="1">
          <mxGeometry x="70" y="280" width="175.99" height="100" as="geometry" />
        </mxCell>
        <mxCell id="MzYWCUBXbWEjFZnSnETH-21" value="Attribute Name :Pill Status&lt;br&gt;Attribute Type: Status" style="text;html=1;align=center;verticalAlign=middle;resizable=0;points=[];autosize=1;strokeColor=none;fillColor=none;" vertex="1" parent="MzYWCUBXbWEjFZnSnETH-20">
          <mxGeometry x="5.99" y="43" width="160" height="40" as="geometry" />
        </mxCell>
        <mxCell id="MzYWCUBXbWEjFZnSnETH-24" value="" style="endArrow=none;html=1;rounded=0;exitX=0.472;exitY=0;exitDx=0;exitDy=0;exitPerimeter=0;" edge="1" parent="1">
          <mxGeometry width="50" height="50" relative="1" as="geometry">
            <mxPoint x="-74.93271999999979" y="280" as="sourcePoint" />
            <mxPoint x="-75" y="190" as="targetPoint" />
          </mxGeometry>
        </mxCell>
        <mxCell id="MzYWCUBXbWEjFZnSnETH-25" value="" style="endArrow=none;html=1;rounded=0;" edge="1" parent="1">
          <mxGeometry width="50" height="50" relative="1" as="geometry">
            <mxPoint x="-310" y="200" as="sourcePoint" />
            <mxPoint x="-75" y="200" as="targetPoint" />
          </mxGeometry>
        </mxCell>
        <mxCell id="MzYWCUBXbWEjFZnSnETH-26" value="" style="endArrow=none;html=1;rounded=0;" edge="1" parent="1">
          <mxGeometry width="50" height="50" relative="1" as="geometry">
            <mxPoint x="-80" y="200" as="sourcePoint" />
            <mxPoint x="160" y="200" as="targetPoint" />
          </mxGeometry>
        </mxCell>
        <mxCell id="MzYWCUBXbWEjFZnSnETH-27" value="" style="endArrow=none;html=1;rounded=0;exitX=0.511;exitY=0;exitDx=0;exitDy=0;exitPerimeter=0;" edge="1" parent="1" source="MzYWCUBXbWEjFZnSnETH-16">
          <mxGeometry width="50" height="50" relative="1" as="geometry">
            <mxPoint x="-130" y="250" as="sourcePoint" />
            <mxPoint x="-310" y="200" as="targetPoint" />
          </mxGeometry>
        </mxCell>
        <mxCell id="MzYWCUBXbWEjFZnSnETH-28" value="" style="endArrow=none;html=1;rounded=0;exitX=0.511;exitY=0;exitDx=0;exitDy=0;exitPerimeter=0;" edge="1" parent="1">
          <mxGeometry width="50" height="50" relative="1" as="geometry">
            <mxPoint x="157.72" y="280" as="sourcePoint" />
            <mxPoint x="157.72" y="200" as="targetPoint" />
          </mxGeometry>
        </mxCell>
        <mxCell id="MzYWCUBXbWEjFZnSnETH-40" value="Attribute :Empty" style="swimlane;whiteSpace=wrap;html=1;startSize=40;fillColor=#f8cecc;strokeColor=#b85450;" vertex="1" parent="1">
          <mxGeometry x="337" y="280" width="175.99" height="100" as="geometry" />
        </mxCell>
        <mxCell id="MzYWCUBXbWEjFZnSnETH-41" value="Attribute Name :box Empty&lt;br&gt;Attribute Type: Boolean" style="text;html=1;align=center;verticalAlign=middle;resizable=0;points=[];autosize=1;strokeColor=none;fillColor=none;" vertex="1" parent="MzYWCUBXbWEjFZnSnETH-40">
          <mxGeometry x="0.9900000000000002" y="43" width="170" height="40" as="geometry" />
        </mxCell>
        <mxCell id="MzYWCUBXbWEjFZnSnETH-42" value="Attribute :State" style="swimlane;whiteSpace=wrap;html=1;startSize=40;fillColor=#f8cecc;strokeColor=#b85450;" vertex="1" parent="1">
          <mxGeometry x="574" y="280" width="175.99" height="100" as="geometry" />
        </mxCell>
        <mxCell id="MzYWCUBXbWEjFZnSnETH-43" value="Attribute Name :Box state&lt;br&gt;Attribute Type: state" style="text;html=1;align=center;verticalAlign=middle;resizable=0;points=[];autosize=1;strokeColor=none;fillColor=none;" vertex="1" parent="MzYWCUBXbWEjFZnSnETH-42">
          <mxGeometry x="5.99" y="43" width="160" height="40" as="geometry" />
        </mxCell>
        <mxCell id="MzYWCUBXbWEjFZnSnETH-46" value="" style="endArrow=none;html=1;rounded=0;exitX=0.472;exitY=0;exitDx=0;exitDy=0;exitPerimeter=0;" edge="1" parent="1" source="MzYWCUBXbWEjFZnSnETH-15">
          <mxGeometry width="50" height="50" relative="1" as="geometry">
            <mxPoint x="543.0672800000002" y="280" as="sourcePoint" />
            <mxPoint x="543" y="190" as="targetPoint" />
          </mxGeometry>
        </mxCell>
        <mxCell id="MzYWCUBXbWEjFZnSnETH-47" value="" style="endArrow=none;html=1;rounded=0;" edge="1" parent="1">
          <mxGeometry width="50" height="50" relative="1" as="geometry">
            <mxPoint x="427" y="200" as="sourcePoint" />
            <mxPoint x="662" y="200" as="targetPoint" />
          </mxGeometry>
        </mxCell>
        <mxCell id="MzYWCUBXbWEjFZnSnETH-49" value="" style="endArrow=none;html=1;rounded=0;exitX=0.511;exitY=0;exitDx=0;exitDy=0;exitPerimeter=0;" edge="1" parent="1" source="MzYWCUBXbWEjFZnSnETH-40">
          <mxGeometry width="50" height="50" relative="1" as="geometry">
            <mxPoint x="607" y="250" as="sourcePoint" />
            <mxPoint x="427" y="200" as="targetPoint" />
          </mxGeometry>
        </mxCell>
        <mxCell id="MzYWCUBXbWEjFZnSnETH-15" value="" style="html=1;whiteSpace=wrap;aspect=fixed;shape=isoRectangle;" vertex="1" parent="1">
          <mxGeometry x="526.32" y="170" width="33.33" height="20" as="geometry" />
        </mxCell>
        <mxCell id="MzYWCUBXbWEjFZnSnETH-52" value="" style="endArrow=none;html=1;rounded=0;exitX=0.511;exitY=0;exitDx=0;exitDy=0;exitPerimeter=0;" edge="1" parent="1">
          <mxGeometry width="50" height="50" relative="1" as="geometry">
            <mxPoint x="661.65" y="280" as="sourcePoint" />
            <mxPoint x="661.65" y="200" as="targetPoint" />
          </mxGeometry>
        </mxCell>
        <mxCell id="MzYWCUBXbWEjFZnSnETH-53" value="" style="endArrow=none;html=1;rounded=0;" edge="1" parent="1">
          <mxGeometry width="50" height="50" relative="1" as="geometry">
            <mxPoint x="543" y="200" as="sourcePoint" />
            <mxPoint x="543" y="190" as="targetPoint" />
          </mxGeometry>
        </mxCell>
        <mxCell id="MzYWCUBXbWEjFZnSnETH-54" value="Number &amp;gt; 0" style="whiteSpace=wrap;html=1;fillColor=#f5f5f5;strokeColor=#666666;fontStyle=1;startSize=40;fontColor=#333333;" vertex="1" parent="1">
          <mxGeometry x="-400" y="420" width="74.99" height="20" as="geometry" />
        </mxCell>
        <mxCell id="MzYWCUBXbWEjFZnSnETH-56" value="Number = 0" style="whiteSpace=wrap;html=1;fillColor=#f5f5f5;strokeColor=#666666;fontStyle=1;startSize=40;fontColor=#333333;" vertex="1" parent="1">
          <mxGeometry x="-300" y="420" width="80" height="20" as="geometry" />
        </mxCell>
        <mxCell id="MzYWCUBXbWEjFZnSnETH-57" value="" style="endArrow=classic;html=1;rounded=0;entryX=0.5;entryY=0;entryDx=0;entryDy=0;exitX=0.5;exitY=1;exitDx=0;exitDy=0;" edge="1" parent="1" source="MzYWCUBXbWEjFZnSnETH-16" target="MzYWCUBXbWEjFZnSnETH-54">
          <mxGeometry width="50" height="50" relative="1" as="geometry">
            <mxPoint x="-340" y="420" as="sourcePoint" />
            <mxPoint x="-290" y="370" as="targetPoint" />
          </mxGeometry>
        </mxCell>
        <mxCell id="MzYWCUBXbWEjFZnSnETH-58" value="" style="endArrow=classic;html=1;rounded=0;entryX=0.5;entryY=0;entryDx=0;entryDy=0;exitX=0.5;exitY=1;exitDx=0;exitDy=0;" edge="1" parent="1" source="MzYWCUBXbWEjFZnSnETH-16" target="MzYWCUBXbWEjFZnSnETH-56">
          <mxGeometry width="50" height="50" relative="1" as="geometry">
            <mxPoint x="-310" y="390" as="sourcePoint" />
            <mxPoint x="-378" y="430" as="targetPoint" />
          </mxGeometry>
        </mxCell>
        <mxCell id="MzYWCUBXbWEjFZnSnETH-60" value="Time: Morning" style="whiteSpace=wrap;html=1;fillColor=#f5f5f5;strokeColor=#666666;fontStyle=1;startSize=40;fontColor=#333333;" vertex="1" parent="1">
          <mxGeometry x="-167" y="423" width="90" height="17" as="geometry" />
        </mxCell>
        <mxCell id="MzYWCUBXbWEjFZnSnETH-61" value="Time: Evening" style="whiteSpace=wrap;html=1;fillColor=#f5f5f5;strokeColor=#666666;fontStyle=1;startSize=40;fontColor=#333333;" vertex="1" parent="1">
          <mxGeometry x="-71" y="423" width="91" height="17" as="geometry" />
        </mxCell>
        <mxCell id="MzYWCUBXbWEjFZnSnETH-62" value="" style="endArrow=classic;html=1;rounded=0;entryX=0.5;entryY=0;entryDx=0;entryDy=0;exitX=0.5;exitY=1;exitDx=0;exitDy=0;" edge="1" parent="1" target="MzYWCUBXbWEjFZnSnETH-60">
          <mxGeometry width="50" height="50" relative="1" as="geometry">
            <mxPoint x="-73" y="383" as="sourcePoint" />
            <mxPoint x="-51" y="373" as="targetPoint" />
          </mxGeometry>
        </mxCell>
        <mxCell id="MzYWCUBXbWEjFZnSnETH-63" value="" style="endArrow=classic;html=1;rounded=0;entryX=0.5;entryY=0;entryDx=0;entryDy=0;exitX=0.5;exitY=1;exitDx=0;exitDy=0;" edge="1" parent="1" target="MzYWCUBXbWEjFZnSnETH-61">
          <mxGeometry width="50" height="50" relative="1" as="geometry">
            <mxPoint x="-73" y="383" as="sourcePoint" />
            <mxPoint x="-139" y="433" as="targetPoint" />
          </mxGeometry>
        </mxCell>
        <mxCell id="MzYWCUBXbWEjFZnSnETH-64" value="Status :Pill Taken" style="whiteSpace=wrap;html=1;fillColor=#f5f5f5;strokeColor=#666666;fontStyle=1;startSize=40;fontColor=#333333;" vertex="1" parent="1">
          <mxGeometry x="40" y="421" width="106" height="17" as="geometry" />
        </mxCell>
        <mxCell id="MzYWCUBXbWEjFZnSnETH-65" value="Status :Pill Not Taken" style="whiteSpace=wrap;html=1;fillColor=#f5f5f5;strokeColor=#666666;fontStyle=1;startSize=40;fontColor=#333333;" vertex="1" parent="1">
          <mxGeometry x="162" y="421" width="128" height="17" as="geometry" />
        </mxCell>
        <mxCell id="MzYWCUBXbWEjFZnSnETH-66" value="" style="endArrow=classic;html=1;rounded=0;entryX=0.5;entryY=0;entryDx=0;entryDy=0;exitX=0.5;exitY=1;exitDx=0;exitDy=0;" edge="1" parent="1" target="MzYWCUBXbWEjFZnSnETH-64">
          <mxGeometry width="50" height="50" relative="1" as="geometry">
            <mxPoint x="160" y="381" as="sourcePoint" />
            <mxPoint x="182" y="371" as="targetPoint" />
          </mxGeometry>
        </mxCell>
        <mxCell id="MzYWCUBXbWEjFZnSnETH-67" value="" style="endArrow=classic;html=1;rounded=0;entryX=0.5;entryY=0;entryDx=0;entryDy=0;exitX=0.5;exitY=1;exitDx=0;exitDy=0;" edge="1" parent="1" target="MzYWCUBXbWEjFZnSnETH-65">
          <mxGeometry width="50" height="50" relative="1" as="geometry">
            <mxPoint x="160" y="381" as="sourcePoint" />
            <mxPoint x="94" y="431" as="targetPoint" />
          </mxGeometry>
        </mxCell>
        <mxCell id="MzYWCUBXbWEjFZnSnETH-68" value="box Empty: Yes" style="whiteSpace=wrap;html=1;fillColor=#f5f5f5;strokeColor=#666666;fontStyle=1;startSize=40;fontColor=#333333;" vertex="1" parent="1">
          <mxGeometry x="309" y="422" width="106" height="17" as="geometry" />
        </mxCell>
        <mxCell id="MzYWCUBXbWEjFZnSnETH-69" value="box Empty: No" style="whiteSpace=wrap;html=1;fillColor=#f5f5f5;strokeColor=#666666;fontStyle=1;startSize=40;fontColor=#333333;" vertex="1" parent="1">
          <mxGeometry x="431" y="422" width="99" height="17" as="geometry" />
        </mxCell>
        <mxCell id="MzYWCUBXbWEjFZnSnETH-70" value="" style="endArrow=classic;html=1;rounded=0;entryX=0.5;entryY=0;entryDx=0;entryDy=0;exitX=0.5;exitY=1;exitDx=0;exitDy=0;" edge="1" parent="1" target="MzYWCUBXbWEjFZnSnETH-68">
          <mxGeometry width="50" height="50" relative="1" as="geometry">
            <mxPoint x="429" y="382" as="sourcePoint" />
            <mxPoint x="451" y="372" as="targetPoint" />
          </mxGeometry>
        </mxCell>
        <mxCell id="MzYWCUBXbWEjFZnSnETH-71" value="" style="endArrow=classic;html=1;rounded=0;entryX=0.5;entryY=0;entryDx=0;entryDy=0;exitX=0.5;exitY=1;exitDx=0;exitDy=0;" edge="1" parent="1" target="MzYWCUBXbWEjFZnSnETH-69">
          <mxGeometry width="50" height="50" relative="1" as="geometry">
            <mxPoint x="429" y="382" as="sourcePoint" />
            <mxPoint x="363" y="432" as="targetPoint" />
          </mxGeometry>
        </mxCell>
        <mxCell id="MzYWCUBXbWEjFZnSnETH-72" value="State :Open" style="whiteSpace=wrap;html=1;fillColor=#f5f5f5;strokeColor=#666666;fontStyle=1;startSize=40;fontColor=#333333;" vertex="1" parent="1">
          <mxGeometry x="541" y="422" width="106" height="17" as="geometry" />
        </mxCell>
        <mxCell id="MzYWCUBXbWEjFZnSnETH-73" value="State :Close" style="whiteSpace=wrap;html=1;fillColor=#f5f5f5;strokeColor=#666666;fontStyle=1;startSize=40;fontColor=#333333;" vertex="1" parent="1">
          <mxGeometry x="663" y="422" width="99" height="17" as="geometry" />
        </mxCell>
        <mxCell id="MzYWCUBXbWEjFZnSnETH-74" value="" style="endArrow=classic;html=1;rounded=0;entryX=0.5;entryY=0;entryDx=0;entryDy=0;exitX=0.5;exitY=1;exitDx=0;exitDy=0;" edge="1" parent="1" target="MzYWCUBXbWEjFZnSnETH-72">
          <mxGeometry width="50" height="50" relative="1" as="geometry">
            <mxPoint x="661" y="382" as="sourcePoint" />
            <mxPoint x="683" y="372" as="targetPoint" />
          </mxGeometry>
        </mxCell>
        <mxCell id="MzYWCUBXbWEjFZnSnETH-75" value="" style="endArrow=classic;html=1;rounded=0;entryX=0.5;entryY=0;entryDx=0;entryDy=0;exitX=0.5;exitY=1;exitDx=0;exitDy=0;" edge="1" parent="1" target="MzYWCUBXbWEjFZnSnETH-73">
          <mxGeometry width="50" height="50" relative="1" as="geometry">
            <mxPoint x="661" y="382" as="sourcePoint" />
            <mxPoint x="595" y="432" as="targetPoint" />
          </mxGeometry>
        </mxCell>
        <mxCell id="MzYWCUBXbWEjFZnSnETH-76" value="" style="endArrow=classic;html=1;rounded=0;entryX=0;entryY=0.5;entryDx=0;entryDy=0;" edge="1" parent="1" target="MzYWCUBXbWEjFZnSnETH-6">
          <mxGeometry width="50" height="50" relative="1" as="geometry">
            <mxPoint y="120" as="sourcePoint" />
            <mxPoint x="50" y="70" as="targetPoint" />
          </mxGeometry>
        </mxCell>
        <mxCell id="MzYWCUBXbWEjFZnSnETH-77" value="Takes Pills From" style="text;html=1;align=center;verticalAlign=middle;resizable=0;points=[];autosize=1;strokeColor=none;fillColor=none;" vertex="1" parent="1">
          <mxGeometry x="165" y="88" width="110" height="30" as="geometry" />
        </mxCell>
      </root>
    </mxGraphModel>
  </diagram>
</mxfile>
